<svg width="703" height="103" viewBox="0 0 703 103" fill="none" xmlns="http://www.w3.org/2000/svg">
<path d="M7.56 82.189V26.47H0.754V16.22H20.024V52.013L19.778 56.482V62.919L20.024 71.898L8.052 82.189H7.56ZM32.242 81.943C28.9347 81.943 25.8733 81.4373 23.058 80.426C20.27 79.3873 17.8373 77.8567 15.76 75.834C13.71 73.784 12.1247 71.242 11.004 68.208L19.778 58.409C19.778 60.8963 20.229 63.0967 21.131 65.01C22.033 66.896 23.345 68.3857 25.067 69.479C26.789 70.545 28.8663 71.078 31.299 71.078C33.759 71.078 35.8363 70.5587 37.531 69.52C39.253 68.454 40.5513 66.978 41.426 65.092C42.328 63.1787 42.779 60.9237 42.779 58.327C42.779 55.8123 42.3007 53.612 41.344 51.726C40.3873 49.84 39.048 48.364 37.326 47.298C35.604 46.232 33.595 45.699 31.299 45.699C28.8937 45.699 26.83 46.232 25.108 47.298C23.386 48.364 22.0603 49.8537 21.131 51.767C20.229 53.653 19.778 55.867 19.778 58.409L18.548 48.446H20.475C21.0217 45.576 21.91 43.1297 23.14 41.107C24.37 39.0843 25.9827 37.54 27.978 36.474C30.0007 35.408 32.4333 34.875 35.276 34.875C38.392 34.875 41.1937 35.49 43.681 36.72C46.1957 37.9227 48.3413 39.6037 50.118 41.763C51.8947 43.9223 53.2477 46.437 54.177 49.307C55.1337 52.1497 55.612 55.1973 55.612 58.45C55.612 63.206 54.6417 67.347 52.701 70.873C50.7877 74.399 48.068 77.1323 44.542 79.073C41.0433 80.9863 36.9433 81.943 32.242 81.943ZM92.0476 70.75H98.8126V81H72.5315V70.75H79.5836V26.47H72.5315V16.22H92.0476V70.75ZM212.697 81.943C207.64 81.943 203.267 80.959 199.577 78.991C195.887 76.9957 193.031 74.2487 191.008 70.75C189.013 67.224 188.015 63.1377 188.015 58.491C188.015 55.0197 188.548 51.8353 189.614 48.938C190.707 46.0407 192.224 43.5533 194.165 41.476C196.133 39.3713 198.415 37.745 201.012 36.597C203.609 35.449 206.424 34.875 209.458 34.875C212.219 34.875 214.501 35.3533 216.305 36.31C218.109 37.2393 219.489 38.5923 220.446 40.369C221.403 42.1457 221.99 44.305 222.209 46.847H224.874L222.66 54.555C222.414 52.6963 221.84 51.0837 220.938 49.717C220.063 48.323 218.888 47.2433 217.412 46.478C215.963 45.7127 214.282 45.33 212.369 45.33C210.046 45.33 208.009 45.8767 206.26 46.97C204.538 48.0633 203.199 49.5803 202.242 51.521C201.285 53.4617 200.807 55.7303 200.807 58.327C200.807 60.8143 201.285 63.0147 202.242 64.928C203.226 66.814 204.606 68.29 206.383 69.356C208.187 70.3947 210.333 70.914 212.82 70.914C215.417 70.914 217.603 70.3537 219.38 69.233C221.184 68.1123 222.414 66.5953 223.07 64.682L235.165 68.741C233.798 72.841 231.133 76.0663 227.17 78.417C223.207 80.7677 218.382 81.943 212.697 81.943ZM222.66 54.555V35.818H235.124V54.555H222.66ZM272.291 70.75H277.785V81H252.98V70.75H259.786V26.47H252.98V16.22H272.291V70.75ZM290.085 52.423L304.107 70.75H308.986V81H283.771V70.75H289.593L279.958 57.753L290.085 52.423ZM268.15 69.643L264.788 62.468L287.953 46.068H278.605V35.777H308.371V46.068H302.877L268.15 69.643ZM389.533 35.818H411.304V46.068H407.286L392.649 81H378.299L363.17 46.068H359.152V35.818H383.014V46.068H376.782L390.886 81L382.481 69.848H390.025L382.276 81L395.724 46.068H389.533V35.818ZM447.84 70.75H454.277V81H428.324V70.75H435.376V46.068H428.324V35.818H447.84V70.75ZM434.269 16.753H448.209V28.561H434.269V16.753ZM498.38 81.82C495.701 81.82 493.419 81.451 491.533 80.713C489.674 79.9477 488.198 78.8543 487.105 77.433C486.039 76.0117 485.342 74.2897 485.014 72.267H483.128L484.604 66.404C485.014 68.126 486.203 69.561 488.171 70.709C490.139 71.8297 492.476 72.39 495.182 72.39C497.287 72.39 498.858 72.0347 499.897 71.324C500.936 70.586 501.455 69.52 501.455 68.126C501.455 66.7047 500.785 65.6113 499.446 64.846C498.134 64.0533 495.756 63.4657 492.312 63.083C485.287 62.2083 480.176 60.4727 476.978 57.876C473.807 55.2793 472.222 51.9173 472.222 47.79C472.222 43.9087 473.561 40.7927 476.24 38.442C478.919 36.0913 482.663 34.916 487.474 34.916C489.934 34.916 491.998 35.285 493.665 36.023C495.332 36.7337 496.617 37.7997 497.519 39.221C498.448 40.6423 499.05 42.3643 499.323 44.387H501.209L499.774 50.086C499.364 48.282 498.271 46.8333 496.494 45.74C494.717 44.6467 492.667 44.1 490.344 44.1C488.485 44.1 487.091 44.4553 486.162 45.166C485.233 45.8493 484.768 46.724 484.768 47.79C484.768 49.1293 485.588 50.1953 487.228 50.988C488.895 51.7807 491.465 52.4093 494.936 52.874C501.66 53.7213 506.512 55.3477 509.491 57.753C512.47 60.1583 513.96 63.5477 513.96 67.921C513.96 72.2397 512.648 75.6427 510.024 78.13C507.4 80.59 503.519 81.82 498.38 81.82ZM472.14 81V66.404H484.604V81H472.14ZM499.774 50.086V35.695H512.238V50.086H499.774ZM552.839 70.75H559.276V81H533.323V70.75H540.375V46.068H533.323V35.818H552.839V70.75ZM539.268 16.753H553.208V28.561H539.268V16.753ZM601.332 81.943C596.33 81.943 591.971 80.959 588.253 78.991C584.536 76.9957 581.639 74.2487 579.561 70.75C577.511 67.224 576.486 63.1513 576.486 58.532C576.486 53.858 577.511 49.7443 579.561 46.191C581.639 42.6377 584.536 39.8633 588.253 37.868C591.971 35.8727 596.33 34.875 601.332 34.875C606.307 34.875 610.653 35.8727 614.37 37.868C618.115 39.8633 621.012 42.6377 623.062 46.191C625.112 49.7443 626.137 53.858 626.137 58.532C626.137 63.1513 625.112 67.224 623.062 70.75C621.012 74.2487 618.129 76.9957 614.411 78.991C610.694 80.959 606.334 81.943 601.332 81.943ZM601.332 70.914C603.683 70.914 605.747 70.4083 607.523 69.397C609.327 68.3583 610.735 66.9097 611.746 65.051C612.758 63.1923 613.263 61.0057 613.263 58.491C613.263 56.0037 612.758 53.817 611.746 51.931C610.735 50.0177 609.327 48.528 607.523 47.462C605.747 46.396 603.683 45.863 601.332 45.863C598.982 45.863 596.904 46.396 595.1 47.462C593.324 48.528 591.93 50.0177 590.918 51.931C589.907 53.817 589.401 56.0037 589.401 58.491C589.401 61.0057 589.907 63.1923 590.918 65.051C591.93 66.9097 593.324 68.3583 595.1 69.397C596.904 70.4083 598.982 70.914 601.332 70.914ZM664.394 70.75H670.175V81H644.878V70.75H651.93V46.068H644.878V35.818H664.394V70.75ZM682.065 70.75V53.407C682.065 50.8377 681.45 48.8013 680.22 47.298C679.017 45.7673 677.227 45.002 674.849 45.002C672.826 45.002 671.022 45.5623 669.437 46.683C667.879 47.7763 666.649 49.3617 665.747 51.439C664.845 53.489 664.394 55.9353 664.394 58.778L662.221 49.307H664.845C665.282 46.109 666.184 43.444 667.551 41.312C668.945 39.18 670.722 37.581 672.881 36.515C675.068 35.4217 677.569 34.875 680.384 34.875C684.949 34.875 688.447 36.2143 690.88 38.893C693.313 41.5443 694.529 45.3573 694.529 50.332V70.75H701.048V81H676.284V70.75H682.065Z" fill="url(#paint0_linear_2_7)"/>
<path d="M345.553 52.362V59.585H327.294V52.362H345.553Z" fill="url(#paint1_linear_2_7)"/>
<g clip-path="url(#clip0_2_7)">
<path d="M142.751 31.6521L121.219 39.7263C119.284 40.4509 118 42.3142 118 44.3845V67.6859C118 69.5699 119.066 71.2882 120.743 72.1267L142.274 82.8923C143.672 83.5962 145.318 83.5962 146.715 82.8923L168.246 72.1267C169.934 71.2882 170.99 69.5595 170.99 67.6859V44.3845C170.99 42.3142 169.706 40.4613 167.77 39.7367L146.239 31.6625C145.121 31.2277 143.879 31.2277 142.751 31.6521ZM144.5 38.0804L164.375 45.5336V45.6474L144.5 53.7216L124.625 45.6474V45.5336L144.5 38.0804ZM147.812 74.932V59.5185L164.375 52.79V66.6507L147.812 74.932Z" fill="url(#paint2_linear_2_7)"/>
</g>
<defs>
<linearGradient id="paint0_linear_2_7" x1="1" y1="51.9999" x2="703" y2="51.9999" gradientUnits="userSpaceOnUse">
<stop stop-color="#F096DD"/>
<stop offset="0.505" stop-color="#E65DD4"/>
<stop offset="1" stop-color="#BC52F1"/>
</linearGradient>
<linearGradient id="paint1_linear_2_7" x1="325" y1="57" x2="348" y2="57" gradientUnits="userSpaceOnUse">
<stop stop-color="#E867D5"/>
<stop offset="1" stop-color="#E35CD5"/>
</linearGradient>
<linearGradient id="paint2_linear_2_7" x1="118" y1="57" x2="171" y2="57" gradientUnits="userSpaceOnUse">
<stop stop-color="#ED88DB"/>
<stop offset="1" stop-color="#EA77D8"/>
</linearGradient>
<clipPath id="clip0_2_7">
<rect width="53" height="53" fill="white" transform="translate(118 31)"/>
</clipPath>
</defs>
</svg>
